<svg width="36" height="36" viewBox="0 0 36 36" fill="none" xmlns="http://www.w3.org/2000/svg">
<path fill-rule="evenodd" clip-rule="evenodd" d="M30.3766 16.6869C29.1936 17.2959 27.8556 17.6459 26.4346 17.6459C22.0966 17.6459 18.5166 14.4419 17.9056 10.2739L5.15761 11.4109C3.86561 11.5259 2.90361 12.5649 3.00761 13.7319L4.22961 27.4349C4.33361 28.6019 5.46461 29.4549 6.75661 29.3389L28.9726 27.3589C30.2646 27.2439 31.2266 26.2049 31.1226 25.0369H31.1216L30.3766 16.6869Z" fill="#BCEAA3"/>
<path d="M19.3166 9.0194C19.3325 9.05867 19.3563 9.09224 19.3804 9.12613C19.3882 9.13712 19.396 9.14814 19.4036 9.1594C19.412 9.17202 19.419 9.18508 19.4259 9.19802C19.437 9.21891 19.4479 9.23949 19.4646 9.2574C19.4659 9.25866 19.4673 9.25957 19.4688 9.26049C19.4708 9.26177 19.4729 9.26308 19.4746 9.2654C19.5386 9.3314 19.6156 9.3834 19.7006 9.4224C19.7041 9.4239 19.7071 9.4264 19.7101 9.4289C19.7131 9.4314 19.7161 9.4339 19.7196 9.4354C19.8096 9.4734 19.9076 9.4944 20.0116 9.4944H23.4356C23.8496 9.4944 24.1856 9.1584 24.1856 8.7444C24.1856 8.3304 23.8496 7.9944 23.4356 7.9944H21.9036L23.1896 6.7864C23.6486 6.3264 24.2156 5.9694 24.8276 5.7524C27.1086 4.9424 29.6186 6.1444 30.4256 8.4234C30.5646 8.8144 30.9946 9.0194 31.3826 8.8804C31.7736 8.7424 31.9786 8.3134 31.8396 7.9234C30.7566 4.8634 27.3826 3.2544 24.3276 4.3384C23.5066 4.6294 22.7456 5.1094 22.1456 5.7104L20.7616 7.0104V5.3204C20.7616 4.9064 20.4256 4.5704 20.0116 4.5704C19.5976 4.5704 19.2616 4.9064 19.2616 5.3204V8.7444C19.2616 8.76593 19.267 8.78603 19.2724 8.80619C19.276 8.81975 19.2796 8.83333 19.2816 8.8474C19.2836 8.85998 19.2853 8.87261 19.287 8.88523C19.2932 8.9308 19.2994 8.97633 19.3166 9.0194Z" fill="#53B124"/>
<path d="M33.2892 10.8856C33.283 10.8401 33.2768 10.7945 33.2596 10.7514C33.2438 10.7121 33.2199 10.6786 33.1959 10.6447C33.1881 10.6337 33.1802 10.6227 33.1726 10.6114C33.164 10.5989 33.1571 10.5856 33.1502 10.5723C33.1394 10.5517 33.1287 10.5311 33.1116 10.5134C33.1095 10.5106 33.1069 10.5093 33.1045 10.508L33.1016 10.5064C33.0707 10.4739 33.032 10.4498 32.9934 10.4258C32.9898 10.4235 32.9862 10.4213 32.9826 10.419C32.9749 10.4142 32.9672 10.4093 32.9596 10.4044C32.9465 10.3963 32.9343 10.3871 32.9222 10.3779C32.9029 10.3632 32.8838 10.3486 32.8616 10.3394C32.8453 10.3318 32.8273 10.329 32.8094 10.3262C32.7966 10.3242 32.7837 10.3222 32.7716 10.3184L32.7603 10.3151C32.6991 10.2971 32.6387 10.2794 32.5756 10.2794C32.5716 10.2784 32.5686 10.2774 32.5656 10.2774H29.1416C28.7276 10.2774 28.3916 10.6124 28.3916 11.0274C28.3916 11.4414 28.7276 11.7774 29.1416 11.7774H30.6726L29.3876 12.9844C27.6786 14.6954 24.8976 14.6974 23.1846 12.9864C22.7246 12.5264 22.3666 11.9594 22.1506 11.3474C22.0136 10.9574 21.5856 10.7514 21.1936 10.8904C20.8036 11.0274 20.5996 11.4564 20.7366 11.8464C21.0266 12.6684 21.5066 13.4284 22.1236 14.0474C23.2736 15.1954 24.7836 15.7694 26.2916 15.7694C27.7946 15.7694 29.2946 15.1994 30.4316 14.0614L31.8156 12.7604V14.4504C31.8156 14.8644 32.1506 15.2004 32.5656 15.2004C32.9796 15.2004 33.3156 14.8644 33.3156 14.4504V11.0274C33.3156 11.0057 33.3101 10.986 33.3045 10.9661C33.3006 10.9522 33.2967 10.9382 33.2946 10.9234C33.2927 10.9108 33.2909 10.8982 33.2892 10.8856Z" fill="#53B124"/>
<path d="M16.9226 23.4134C19.1226 23.2174 20.7476 21.2744 20.5516 19.0744C20.3556 16.8734 18.4126 15.2494 16.2116 15.4444C14.0116 15.6414 12.3866 17.5844 12.5826 19.7844C12.7786 21.9854 14.7216 23.6094 16.9226 23.4134Z" fill="#53B124"/>
</svg>
