<svg width="100" height="101" viewBox="0 0 100 101" fill="none" xmlns="http://www.w3.org/2000/svg">
<g clip-path="url(#clip0)">
<rect x="19" y="26.8149" width="68" height="68" rx="24" fill="#F6F4EA"/>
<circle cx="11.8814" cy="33.6963" r="0.881356" fill="#BCEAA3"/>
<circle cx="18.6441" cy="33.6963" r="0.881356" fill="#BCEAA3"/>
<circle cx="25.4067" cy="33.6963" r="0.881356" fill="#BCEAA3"/>
<circle cx="32.1694" cy="33.6963" r="0.881356" fill="#BCEAA3"/>
<circle cx="38.9321" cy="33.6963" r="0.881356" fill="#BCEAA3"/>
<circle cx="11.8814" cy="40.459" r="0.881356" fill="#BCEAA3"/>
<circle cx="18.6441" cy="40.459" r="0.881356" fill="#BCEAA3"/>
<circle cx="25.4067" cy="40.459" r="0.881356" fill="#BCEAA3"/>
<circle cx="32.1694" cy="40.459" r="0.881356" fill="#BCEAA3"/>
<circle cx="38.9321" cy="40.459" r="0.881356" fill="#BCEAA3"/>
<circle cx="11.8814" cy="47.2217" r="0.881356" fill="#BCEAA3"/>
<circle cx="18.6441" cy="47.2217" r="0.881356" fill="#BCEAA3"/>
<circle cx="25.4067" cy="47.2217" r="0.881356" fill="#BCEAA3"/>
<circle cx="32.1694" cy="47.2217" r="0.881356" fill="#BCEAA3"/>
<circle cx="38.9321" cy="47.2217" r="0.881356" fill="#BCEAA3"/>
<circle cx="11.8814" cy="53.9844" r="0.881356" fill="#BCEAA3"/>
<circle cx="18.6441" cy="53.9844" r="0.881356" fill="#BCEAA3"/>
<circle cx="25.4067" cy="53.9844" r="0.881356" fill="#BCEAA3"/>
<circle cx="32.1694" cy="53.9844" r="0.881356" fill="#BCEAA3"/>
<circle cx="38.9321" cy="53.9844" r="0.881356" fill="#BCEAA3"/>
<circle cx="11.8814" cy="60.7471" r="0.881356" fill="#BCEAA3"/>
<circle cx="18.6441" cy="60.7471" r="0.881356" fill="#BCEAA3"/>
<circle cx="25.4067" cy="60.7471" r="0.881356" fill="#BCEAA3"/>
<circle cx="32.1694" cy="60.7471" r="0.881356" fill="#BCEAA3"/>
<circle cx="38.9321" cy="60.7471" r="0.881356" fill="#BCEAA3"/>
<path d="M81.389 65.7499C77.5837 65.7499 74.3248 67.9569 72.7265 71.1399L65.9656 67.7586C68.7734 61.9738 74.6884 57.9722 81.5523 57.9722C84.082 57.9722 86.4795 58.5263 88.6476 59.5024L85.4042 66.6386C84.1773 66.0805 82.824 65.7499 81.389 65.7499ZM38.6112 65.7499C35.7587 65.7499 33.2212 67.0002 31.4401 68.9544L25.807 63.8308C28.9823 60.2452 33.6081 57.9722 38.7745 57.9722C45.7279 57.9722 51.709 62.0769 54.472 67.9861L47.3787 71.3344C45.8193 68.0444 42.4943 65.7499 38.6112 65.7499Z" fill="#529F46"/>
<path d="M81.3889 61.8608C88.9061 61.8608 95 67.9547 95 75.472C95 82.9892 88.9061 89.0831 81.3889 89.0831C73.8717 89.0831 67.7778 82.9892 67.7778 75.472C67.7778 67.9547 73.8697 61.8608 81.3889 61.8608ZM81.3889 85.1942C86.7575 85.1942 91.1111 80.8425 91.1111 75.472C91.1111 70.1014 86.7575 65.7497 81.3889 65.7497C76.0203 65.7497 71.6667 70.1014 71.6667 75.472C71.6667 80.8425 76.0183 85.1942 81.3889 85.1942ZM38.6111 61.8608C46.1264 61.8608 52.2222 67.9547 52.2222 75.472C52.2222 82.9892 46.1264 89.0831 38.6111 89.0831C31.0919 89.0831 25 82.9892 25 75.472C25 67.9547 31.0919 61.8608 38.6111 61.8608ZM38.6111 85.1942C43.9797 85.1942 48.3333 80.8425 48.3333 75.472C48.3333 70.1014 43.9797 65.7497 38.6111 65.7497C33.2406 65.7497 28.8889 70.1014 28.8889 75.472C28.8889 80.8425 33.2406 85.1942 38.6111 85.1942Z" fill="#191919"/>
<path d="M36.6978 75.3201C36.7075 75.1898 36.7386 75.0634 36.7755 74.9351C36.8125 74.8087 36.8533 74.6901 36.9136 74.5734C36.9389 74.5268 36.9428 74.4723 36.97 74.4276L50.5811 53.0387C51.1586 52.1326 52.3583 51.8643 53.2664 52.4418C53.8478 52.8112 54.1297 53.4393 54.1316 54.0809H71.6666C72.74 54.0809 73.6111 54.9501 73.6111 56.0254C73.6111 57.1007 72.74 57.9698 71.6666 57.9698H52.2222C52.1697 57.9698 52.125 57.9426 52.0725 57.9387L42.1539 73.5273H60C61.0733 73.5273 61.9444 74.3965 61.9444 75.4718C61.9444 76.547 61.0733 77.4162 60 77.4162H38.6091C38.3836 77.4162 38.1619 77.3618 37.9422 77.282C37.8761 77.2568 37.8178 77.2296 37.7536 77.1984C37.6933 77.1654 37.6253 77.1518 37.565 77.1129C37.5066 77.074 37.4716 77.0137 37.4191 76.9729C37.3122 76.8873 37.2189 76.7998 37.1333 76.6948C37.0536 76.5995 36.9894 76.5023 36.9311 76.3954C36.8728 76.2865 36.8241 76.1815 36.7853 76.0609C36.7444 75.9326 36.7211 75.8043 36.7075 75.6701C36.6997 75.6001 36.6666 75.5418 36.6666 75.4718C36.6666 75.4193 36.6939 75.3726 36.6978 75.3201Z" fill="#88C65C"/>
<path d="M53.0363 50.1943L58.6733 65.9774L70.2019 52.8038C70.9097 51.9968 72.1386 51.9113 72.9455 52.621C73.7525 53.3288 73.8341 54.5557 73.1283 55.3646L60.1705 70.1716L61.8311 74.8188C62.1908 75.8279 61.6638 76.9421 60.6527 77.3018C60.4369 77.3796 60.2172 77.4166 59.9994 77.4166C59.2002 77.4166 58.4516 76.9207 58.1677 76.1255L48.9063 50.1943H53.0363Z" fill="#88C65C"/>
<path d="M81.3898 77.4165C81.6815 77.4165 81.979 77.3504 82.2571 77.2123C83.2176 76.732 83.6065 75.5634 83.1262 74.6029L77.1723 62.7301C77.1393 62.6756 73.6121 57.2934 73.6121 52.1387C73.6121 45.8348 78.0707 44.2773 78.1154 44.2617C79.1343 43.9215 79.6846 42.8209 79.3443 41.802C79.0059 40.7831 77.9073 40.227 76.8846 40.5731C76.5929 40.6704 69.7232 43.064 69.7232 52.1387C69.7232 58.1042 73.2932 63.887 73.8668 64.7717L79.6496 76.3392C79.9898 77.0237 80.6762 77.4165 81.3898 77.4165Z" fill="#88C65C"/>
<path d="M66.5875 45.6498C66.6925 45.6498 66.8014 45.642 66.9084 45.6226L78.575 43.6781C79.6328 43.5012 80.3503 42.4998 80.1734 41.4401C79.9964 40.3823 79.0048 39.6648 77.9353 39.8418L66.2687 41.7862C65.2109 41.9631 64.4934 42.9645 64.6703 44.0243C64.8298 44.9751 65.6542 45.6498 66.5875 45.6498ZM43.6995 52.1384C43.7578 52.1384 43.8142 52.1345 43.8725 52.1268L54.9014 50.7501C55.6248 50.6606 56.1537 50.0229 56.107 49.2956C56.0623 48.5684 55.4595 48.0026 54.7323 48.0026C54.6525 48.0026 46.8242 47.9676 43.087 45.4768C42.6009 45.152 41.9553 45.1715 41.4848 45.5273C41.0201 45.887 40.8295 46.5015 41.0162 47.0595L42.3948 51.1954C42.5814 51.7651 43.1123 52.1384 43.6995 52.1384Z" fill="#191919"/>
<path d="M56.1111 75.4719C56.1111 77.6186 57.8514 79.3608 60 79.3608C62.1467 79.3608 63.8889 77.6186 63.8889 75.4719C63.8889 73.3252 62.1467 71.583 60 71.583C57.8514 71.583 56.1111 73.3252 56.1111 75.4719Z" fill="#E7C868"/>
<path d="M45 94.8149H87C85.9457 88.0303 79.6065 82.8149 71.944 82.8149C66.5548 82.8149 61.8202 85.3948 59.1185 89.286C58.02 88.9797 56.8547 88.8149 55.6476 88.8149C51.0035 88.8149 46.9781 91.2533 45 94.8149Z" fill="#C6E1AB"/>
</g>
<defs>
<clipPath id="clip0">
<rect width="100" height="100" fill="white" transform="translate(0 0.814941)"/>
</clipPath>
</defs>
</svg>
