<svg width="36" height="36" viewBox="0 0 36 36" fill="none" xmlns="http://www.w3.org/2000/svg">
<path fill-rule="evenodd" clip-rule="evenodd" d="M17.9624 3C17.9624 3 -4.4536 23.002 17.9624 33.554C40.7634 23.089 17.9624 3 17.9624 3Z" fill="#BCEAA3"/>
<path fill-rule="evenodd" clip-rule="evenodd" d="M21.7564 13.414L19.2474 15.871C19.2014 15.917 19.1434 15.938 19.0914 15.974V29.155C19.0914 29.708 18.6444 30.155 18.0914 30.155C17.5384 30.155 17.0914 29.708 17.0914 29.155V25.449C17.0374 25.414 16.9794 25.391 16.9314 25.344L11.2124 19.692C10.8194 19.305 10.8164 18.671 11.2044 18.278C11.5924 17.886 12.2254 17.881 12.6184 18.27L17.0914 22.69V7.68604C17.0914 7.13404 17.5384 6.68604 18.0914 6.68604C18.6444 6.68604 19.0914 7.13404 19.0914 7.68604V13.225L20.3584 11.984C20.7514 11.599 21.3844 11.605 21.7724 12C22.1574 12.394 22.1524 13.027 21.7564 13.414Z" fill="#53B124"/>
</svg>
