<svg width="36" height="36" viewBox="0 0 36 36" fill="none" xmlns="http://www.w3.org/2000/svg">
<path fill-rule="evenodd" clip-rule="evenodd" d="M31.0021 14.8115C31.5531 14.8115 32.0001 14.3645 32.0001 13.8135V13.3565C32.0001 13.0165 31.8271 12.7005 31.5421 12.5165L18.5401 5.15849C18.2111 4.94749 17.7891 4.94749 17.4601 5.15849L4.45809 12.5165C4.17309 12.7005 4.00009 13.0165 4.00009 13.3565V13.8135C4.00009 14.3645 4.44709 14.8115 4.99809 14.8115H7.50009V26.8115H6.00009C4.89509 26.8115 4.00009 27.7075 4.00009 28.8115C4.00009 29.9155 4.89509 30.8115 6.00009 30.8115H30.0001C31.1041 30.8115 32.0001 29.9155 32.0001 28.8115C32.0001 27.7075 31.1041 26.8115 30.0001 26.8115H28.5001V14.8115H31.0021Z" fill="#BCEAA3"/>
<path d="M16 10.8115C16 9.70752 16.896 8.81152 18 8.81152C19.104 8.81152 20 9.70752 20 10.8115C20 11.9155 19.104 12.8115 18 12.8115C16.896 12.8115 16 11.9155 16 10.8115Z" fill="#53B124"/>
<path d="M22.5 25.8075V15.8155C22.5 15.2605 22.949 14.8115 23.504 14.8115H24.496C25.051 14.8115 25.5 15.2605 25.5 15.8155V25.8075C25.5 26.3625 25.051 26.8115 24.496 26.8115H23.504C22.949 26.8115 22.5 26.3625 22.5 25.8075Z" fill="#53B124"/>
<path d="M16.5 15.8155V25.8075C16.5 26.3625 16.949 26.8115 17.504 26.8115H18.496C19.051 26.8115 19.5 26.3625 19.5 25.8075V15.8155C19.5 15.2605 19.051 14.8115 18.496 14.8115H17.504C16.949 14.8115 16.5 15.2605 16.5 15.8155Z" fill="#53B124"/>
<path d="M12.496 14.8115H11.504C10.949 14.8115 10.5 15.2605 10.5 15.8155V25.8075C10.5 26.3625 10.949 26.8115 11.504 26.8115H12.496C13.051 26.8115 13.5 26.3625 13.5 25.8075V15.8155C13.5 15.2605 13.051 14.8115 12.496 14.8115Z" fill="#53B124"/>
</svg>
