<svg width="36" height="36" viewBox="0 0 36 36" fill="none" xmlns="http://www.w3.org/2000/svg">
<path fill-rule="evenodd" clip-rule="evenodd" d="M6.9961 24.9175C5.8931 24.9175 5.0001 24.0225 5.0001 22.9205V10.0025C5.0001 8.34449 6.3441 7.00049 8.0021 7.00049H14.0831C23.2041 7.00049 30.7331 13.8155 31.8551 22.6325C32.0101 23.8395 31.0931 24.9175 29.8751 24.9175H6.9961Z" fill="#BCEAA3"/>
<path fill-rule="evenodd" clip-rule="evenodd" d="M11.0967 21.8059C9.1727 21.8059 7.6137 23.3669 7.6137 25.2899C7.6137 27.2139 9.1727 28.7739 11.0967 28.7739C13.0207 28.7739 14.5807 27.2139 14.5807 25.2899C14.5807 23.3669 13.0207 21.8059 11.0967 21.8059Z" fill="#BCEAA3"/>
<path fill-rule="evenodd" clip-rule="evenodd" d="M29.3867 25.2899C29.3867 27.2139 27.8267 28.7739 25.9037 28.7739C23.9797 28.7739 22.4187 27.2139 22.4187 25.2899C22.4187 23.3669 23.9797 21.8059 25.9037 21.8059C27.8267 21.8059 29.3867 23.3669 29.3867 25.2899Z" fill="#BCEAA3"/>
<path fill-rule="evenodd" clip-rule="evenodd" d="M15.5811 25.2904C15.5811 22.8174 13.5691 20.8064 11.0971 20.8064C8.6251 20.8064 6.6131 22.8174 6.6131 25.2904C6.6131 27.7624 8.6251 29.7734 11.0971 29.7734C13.5691 29.7734 15.5811 27.7624 15.5811 25.2904Z" fill="#53B124"/>
<path fill-rule="evenodd" clip-rule="evenodd" d="M30.3871 25.2904C30.3871 22.8174 28.3751 20.8064 25.9031 20.8064C23.4311 20.8064 21.4191 22.8174 21.4191 25.2904C21.4191 27.7624 23.4311 29.7734 25.9031 29.7734C28.3751 29.7734 30.3871 27.7624 30.3871 25.2904Z" fill="#53B124"/>
<path fill-rule="evenodd" clip-rule="evenodd" d="M28.3871 25.2904C28.3871 26.6594 27.2721 27.7734 25.9031 27.7734C24.5331 27.7734 23.4191 26.6594 23.4191 25.2904C23.4191 23.9204 24.5331 22.8064 25.9031 22.8064C27.2721 22.8064 28.3871 23.9204 28.3871 25.2904Z" fill="#BCEAA3"/>
<path fill-rule="evenodd" clip-rule="evenodd" d="M9.4771 15.9584H12.4711C13.2921 15.9584 13.9591 15.2924 13.9591 14.4704V11.4744C13.9591 10.6524 13.2921 9.98535 12.4711 9.98535H9.4791C8.6581 9.98535 7.9911 10.6514 7.9911 11.4734L7.9901 14.4704C7.9891 15.2914 8.6551 15.9584 9.4771 15.9584Z" fill="#53B124"/>
<path fill-rule="evenodd" clip-rule="evenodd" d="M13.5811 25.2904C13.5811 26.6594 12.4671 27.7734 11.0971 27.7734C9.7271 27.7734 8.6131 26.6594 8.6131 25.2904C8.6131 23.9204 9.7271 22.8064 11.0971 22.8064C12.4671 22.8064 13.5811 23.9204 13.5811 25.2904Z" fill="#BCEAA3"/>
<path fill-rule="evenodd" clip-rule="evenodd" d="M23.4571 15.9585H16.9351C16.1151 15.9585 15.4511 15.2965 15.4511 14.1575V11.8475C15.4511 10.8825 16.3541 10.1585 17.2941 10.3775C19.8971 10.9855 22.2621 12.2875 24.1671 14.0795C24.8871 14.7575 24.4451 15.9585 23.4571 15.9585Z" fill="#53B124"/>
</svg>
