<svg width="36" height="36" viewBox="0 0 36 36" fill="none" xmlns="http://www.w3.org/2000/svg">
<path d="M12.5 7C18.299 7 23 11.701 23 17.5C23 20.863 21.412 23.85 18.952 25.772C18.821 22.76 16.898 20.251 14.282 19.453C15.031 18.903 15.522 18.023 15.522 17.022C15.522 15.354 14.169 14 12.5 14C10.831 14 9.478 15.354 9.478 17.022C9.478 18.023 9.969 18.903 10.718 19.453C8.102 20.251 6.179 22.76 6.048 25.772C3.588 23.85 2 20.863 2 17.5C2 11.701 6.701 7 12.5 7Z" fill="#BCEAA3"/>
<path d="M24.13 12.95C25.113 12.351 26.265 12 27.5 12C31.09 12 34 14.91 34 18.5C34 20.582 33.018 22.431 31.494 23.621C31.413 21.756 30.223 20.203 28.604 19.709C29.066 19.368 29.371 18.824 29.371 18.205C29.371 17.171 28.533 16.333 27.5 16.333C26.467 16.333 25.629 17.171 25.629 18.205C25.629 18.824 25.934 19.368 26.396 19.709C25.642 19.939 24.986 20.407 24.486 21.022C24.815 19.904 25 18.724 25 17.5C25 15.894 24.685 14.362 24.13 12.95Z" fill="#BCEAA3"/>
<path fill-rule="evenodd" clip-rule="evenodd" d="M14.2822 19.4531C15.0312 18.9031 15.5222 18.0231 15.5222 17.0221C15.5222 15.3531 14.1692 14.0001 12.5002 14.0001C10.8312 14.0001 9.47719 15.3531 9.47719 17.0221C9.47719 18.0231 9.96919 18.9031 10.7182 19.4531C8.10119 20.2511 6.17819 22.7601 6.04819 25.7721C7.82919 27.1631 10.0642 28.0001 12.5002 28.0001C14.9352 28.0001 17.1712 27.1631 18.9522 25.7721C18.8212 22.7601 16.8982 20.2511 14.2822 19.4531ZM31.4942 23.6201C30.3912 24.4821 29.0082 25.0001 27.5002 25.0001C25.9922 25.0001 24.6082 24.4821 23.5062 23.6201C23.5102 23.5291 23.5282 23.4431 23.5372 23.3531C23.9292 22.6171 24.2462 21.8361 24.4862 21.0221C24.9862 20.4071 25.6412 19.9391 26.3962 19.7091C25.9332 19.3681 25.6292 18.8241 25.6292 18.2041C25.6292 17.1711 26.4672 16.3331 27.5002 16.3331C28.5332 16.3331 29.3712 17.1711 29.3712 18.2041C29.3712 18.8241 29.0662 19.3681 28.6032 19.7091C30.2222 20.2031 31.4132 21.7561 31.4942 23.6201Z" fill="#53B124"/>
</svg>
