<svg width="45" height="45" viewBox="0 0 45 45" fill="none" xmlns="http://www.w3.org/2000/svg">
<path fill-rule="evenodd" clip-rule="evenodd" d="M38.9662 34.1681C38.5631 34.77 37.8975 35.1319 37.1812 35.1319H37.1756L7.71745 35.0625C7.10808 35.0606 6.52683 34.7963 6.12183 34.3388C5.7412 33.9056 5.5687 33.3619 5.64183 32.7937L5.67933 32.5275C6.37308 27.8681 10.2675 24.0075 14.9381 23.3475C15.4818 23.2706 16.0237 23.235 16.5562 23.235C19.3687 23.235 22.0106 24.2756 24.0375 26.175C23.0081 26.9981 22.1306 27.9638 21.4256 29.0569C20.8631 29.9269 21.1125 31.0875 21.9806 31.65C22.8487 32.2125 24.0093 31.9631 24.5737 31.0931C25.1812 30.1519 25.9781 29.3438 26.9418 28.6894C29.6737 26.8256 33.4837 26.8538 36.2006 28.7512C37.5262 29.6775 38.5481 30.9319 39.1593 32.3794C39.5081 33.2081 39.1406 33.9056 38.9662 34.1681ZM16.8 9.375C19.0406 9.375 20.865 11.1994 20.865 13.44C20.865 15.6825 19.0406 17.505 16.8 17.505C14.5575 17.505 12.735 15.6825 12.735 13.44C12.735 11.1994 14.5575 9.375 16.8 9.375ZM31.7925 17.295C32.9418 17.295 33.8775 18.2306 33.8775 19.38C33.8775 20.5312 32.9418 21.4669 31.7925 21.4669C30.6431 21.4669 29.7075 20.5312 29.7075 19.38C29.7075 18.2306 30.6431 17.295 31.7925 17.295ZM42.615 30.9263C41.7318 28.8244 40.2543 27.0112 38.3512 25.68C37.3612 24.9881 36.2793 24.4837 35.1637 24.1275C36.6487 23.0681 37.6275 21.3394 37.6275 19.38C37.6275 16.1625 35.01 13.545 31.7925 13.545C28.575 13.545 25.9575 16.1625 25.9575 19.38C25.9575 21.2737 26.8781 22.9425 28.2787 24.0075C27.99 24.09 27.6975 24.1613 27.4162 24.2663C25.5993 22.29 23.2856 20.895 20.7562 20.1413C23.055 18.7781 24.615 16.2994 24.615 13.44C24.615 9.13125 21.1087 5.625 16.8 5.625C12.4912 5.625 8.98495 9.13125 8.98495 13.44C8.98495 16.2206 10.455 18.6506 12.6487 20.0363C7.11558 21.5437 2.82933 26.2125 1.97245 31.9688L1.91808 32.3438C1.71745 33.9562 2.2237 35.5875 3.30933 36.8175C4.42308 38.0812 6.02808 38.8088 7.70995 38.8125L37.1662 38.8819H37.1831C39.1556 38.8819 40.9874 37.8975 42.0862 36.2456C43.1475 34.6537 43.3462 32.6625 42.615 30.9263Z" fill="#191919"/>
</svg>
