<svg xmlns="http://www.w3.org/2000/svg" xmlns:xlink="http://www.w3.org/1999/xlink" width="46" height="46" viewBox="0 0 46 46">
    <defs>
        <rect id="b" width="40" height="40" rx="4"/>
        <filter id="a" width="125%" height="125%" x="-12.5%" filterUnits="objectBoundingBox">
            <feOffset dy="1" in="SourceAlpha" result="shadowOffsetOuter1"/>
            <feGaussianBlur in="shadowOffsetOuter1" result="shadowBlurOuter1" stdDeviation="1.5"/>
            <feComposite in="shadowBlurOuter1" in2="SourceAlpha" operator="out" result="shadowBlurOuter1"/>
            <feColorMatrix in="shadowBlurOuter1" values="0 0 0 0 0 0 0 0 0 0 0 0 0 0 0 0 0 0 0.1 0"/>
        </filter>
    </defs>
    <g fill="none" fill-rule="evenodd">
        <g transform="translate(3 2)">
            <use fill="#000" filter="url(#a)" xlink:href="#b"/>
            <use fill="#FFF" fill-opacity=".2" xlink:href="#b"/>
        </g>
        <path fill="#FFF" d="M26.092 11c-2.684 0-5.13 1.04-6.98 2.744-1.587.035-3.07.198-4.359.456-1.474.295-2.694.72-3.487 1.176-.53.304-.852.619-.969.828a.504.504 0 0 0-.082.237.51.51 0 0 0 .082.243c.067.117.199.272.4.439.406.335 1.091.701 1.975 1.006.923.326 2.064.59 3.342.766-.158.6-.266 1.222-.322 1.857a25.111 25.111 0 0 1-1.292-.217c-1.61-.325-2.983-.781-4.034-1.383-.05-.03-.1-.062-.15-.09v1.67c0 .063.013.135.081.254.067.118.199.273.4.44.406.335 1.091.701 1.975 1.007.862.304 1.909.55 3.081.727.09.68.246 1.335.454 1.966a26.365 26.365 0 0 1-1.807-.287c-1.61-.326-2.983-.782-4.034-1.383-.072-.045-.141-.085-.212-.129v1.448c0 .074.018.158.09.283.073.127.208.29.415.458.412.342 1.103.71 1.991 1.018 1.233.431 2.842.757 4.653.918.42.671.911 1.29 1.465 1.85a26.738 26.738 0 0 1-4.356-.485c-1.605-.324-2.972-.779-4.014-1.375a4.122 4.122 0 0 1-.183-.111v1.612c0 .066.014.135.082.256.067.116.199.27.4.44.406.337 1.091.7 1.975 1.009 1.77.617 4.322 1.023 7.14 1.02.8 0 1.576-.034 2.318-.096 1.222.515 2.56.8 3.962.8 5.765 0 10.44-4.783 10.44-10.685 0-5.9-4.675-10.687-10.44-10.687zm-.035 3.166c4.07 0 7.371 3.366 7.371 7.52 0 4.15-3.3 7.52-7.37 7.52s-7.37-3.37-7.37-7.52c0-4.154 3.3-7.52 7.37-7.52z"/>
        <path stroke="#FFF" stroke-linecap="round" stroke-linejoin="round" stroke-width="1.5" d="M26.02 18L26 22.49l3 .01"/>
    </g>
</svg>
