<svg width="100" height="101" viewBox="0 0 100 101" fill="none" xmlns="http://www.w3.org/2000/svg">
<g clip-path="url(#clip0)">
<rect x="19" y="26.8149" width="68" height="68" rx="24" fill="#F6F4EA"/>
<g clip-path="url(#clip1)">
<path d="M41.35 24.5107C41.6721 24.4757 41.959 24.7093 41.9941 25.0305C42.0293 25.3518 41.795 25.638 41.473 25.673C41.4554 25.673 41.432 25.673 41.4144 25.673C41.1157 25.673 40.8639 25.4511 40.8288 25.1532C40.7937 24.8319 41.022 24.5399 41.35 24.5107ZM37.2742 16.4093C37.4147 16.4093 37.5553 16.3626 37.6666 16.2575C37.9067 16.0414 37.9242 15.6734 37.7075 15.4339C37.4909 15.1944 37.1219 15.1769 36.8818 15.393C36.6418 15.6091 36.6242 15.9771 36.8409 16.2166C36.9463 16.3451 37.1102 16.4093 37.2742 16.4093ZM34.7151 14.1197C34.8908 14.1197 35.0723 14.0379 35.1895 13.8802C35.3769 13.6174 35.3183 13.2552 35.0606 13.0625C35.0548 13.0625 35.0548 13.0625 35.0548 13.0625C34.7971 12.8697 34.4282 12.9282 34.2408 13.191C34.0475 13.4538 34.1061 13.816 34.3696 14.0087C34.475 14.0788 34.598 14.1197 34.7151 14.1197ZM28.3672 42.3021C28.051 42.3664 27.8519 42.676 27.9222 42.9914C27.9749 43.2659 28.2208 43.4528 28.4902 43.4528C28.5312 43.4528 28.5722 43.4528 28.6132 43.4411C28.9294 43.371 29.1343 43.0615 29.0641 42.7519C28.9879 42.4306 28.6834 42.2321 28.3672 42.3021ZM31.4943 12.3441C31.5763 12.3791 31.6583 12.3966 31.7344 12.3966C31.9569 12.3966 32.1736 12.2681 32.2732 12.052C32.402 11.7541 32.2673 11.4095 31.9745 11.281C31.9745 11.2752 31.9745 11.2752 31.9745 11.2752C31.6759 11.1467 31.3303 11.281 31.2015 11.5731C31.0668 11.8651 31.2015 12.2214 31.4943 12.3441ZM31.5236 41.2683C31.2249 41.4026 31.0961 41.7473 31.2249 42.0393C31.3245 42.2554 31.5353 42.3839 31.7637 42.3839C31.8398 42.3839 31.9218 42.3664 31.9979 42.3372C31.9979 42.3313 31.9979 42.3313 31.9979 42.3313C32.2966 42.2028 32.4254 41.8582 32.2966 41.5603C32.156 41.2683 31.8164 41.1398 31.5236 41.2683ZM39.3004 19.1838C39.3999 19.1838 39.4995 19.1546 39.5932 19.102C39.8743 18.9385 39.968 18.5822 39.804 18.3076C39.64 18.0273 39.2828 17.928 39.0017 18.0915C38.7265 18.2551 38.6269 18.6114 38.7909 18.8917C38.8963 19.0845 39.0896 19.1838 39.3004 19.1838ZM40.6941 22.3204C40.7527 22.3204 40.8171 22.3087 40.8756 22.2911C41.1802 22.1919 41.35 21.8589 41.2504 21.5552C41.1509 21.2456 40.8171 21.0762 40.5126 21.1814C40.2022 21.2807 40.0382 21.6078 40.1378 21.9173C40.2139 22.1568 40.454 22.3204 40.6941 22.3204ZM34.3813 39.6095C34.1237 39.7964 34.0651 40.1644 34.2584 40.4214C34.3696 40.5791 34.5512 40.6608 34.7268 40.6608C34.8498 40.6608 34.9669 40.6258 35.0723 40.5499C35.3359 40.363 35.3944 39.995 35.2012 39.738C35.0079 39.481 34.6449 39.4167 34.3813 39.6095ZM40.8874 31.3154C40.577 31.2161 40.2491 31.3855 40.1495 31.6892C40.05 31.9988 40.2198 32.3258 40.5243 32.4251C40.5828 32.4485 40.6473 32.4543 40.7058 32.4543C40.9518 32.4543 41.1802 32.2966 41.2621 32.0513C41.3558 31.7418 41.186 31.4147 40.8874 31.3154ZM41.473 27.9335C41.1509 27.8984 40.8639 28.1321 40.8347 28.4533C40.7995 28.7746 41.0338 29.0608 41.3558 29.0958C41.3734 29.0958 41.3968 29.0958 41.4144 29.0958C41.7131 29.0958 41.9649 28.8739 42 28.576C42.0234 28.2606 41.795 27.9685 41.473 27.9335ZM36.8467 37.3899C36.63 37.6294 36.6535 38.0032 36.8877 38.2135C37.0048 38.3186 37.1395 38.3654 37.2801 38.3654C37.444 38.3654 37.6021 38.3011 37.7193 38.1726C37.9301 37.9331 37.9125 37.5652 37.6724 37.349C37.4323 37.1329 37.0634 37.1504 36.8467 37.3899ZM39.599 34.4987C39.3179 34.341 38.9607 34.4344 38.8026 34.7148C38.6387 34.9952 38.7323 35.3514 39.0134 35.5092C39.1071 35.5676 39.2067 35.5909 39.3062 35.5909C39.5112 35.5909 39.7044 35.4858 39.8157 35.2989C39.968 35.0244 39.8743 34.6622 39.599 34.4987ZM28.3496 11.3219C28.3906 11.3336 28.4316 11.3336 28.4726 11.3336C28.742 11.3336 28.9821 11.1467 29.0406 10.8721C29.1109 10.5567 28.906 10.2472 28.5897 10.1829C28.2735 10.1128 27.9631 10.3173 27.8987 10.6327C27.8226 10.9539 28.0334 11.2576 28.3496 11.3219ZM25.4509 42.8161C25.3455 42.711 25.1933 42.6468 25.041 42.6468C16.2921 42.6468 9.1712 35.5442 9.1712 26.812C9.1712 18.0915 16.2863 10.989 25.0293 10.9831C25.0351 10.9831 25.0351 10.9831 25.041 10.9831C25.1171 10.9831 25.1932 10.9656 25.2635 10.9364C25.3338 10.9072 25.3982 10.8663 25.4509 10.8079C25.5095 10.7553 25.5505 10.6911 25.5797 10.621C25.6149 10.5509 25.6266 10.475 25.6266 10.399C25.6266 10.364 25.6207 10.3231 25.6149 10.2881C25.609 10.253 25.5973 10.2121 25.5797 10.1771C25.568 10.1362 25.5505 10.107 25.527 10.0778C25.5036 10.0486 25.4802 10.0135 25.4509 9.99017C25.3514 9.87919 25.1991 9.82078 25.041 9.81494C15.648 9.81494 8 17.4432 8 26.812C8 36.1867 15.648 43.8091 25.041 43.8091C25.1171 43.8091 25.1932 43.7974 25.2635 43.7682C25.3338 43.7332 25.3982 43.6923 25.4509 43.6397C25.5095 43.5813 25.5505 43.5229 25.5797 43.447C25.609 43.3769 25.6266 43.3009 25.6266 43.225C25.6266 43.1491 25.609 43.0731 25.5797 43.0031C25.5505 42.9388 25.5153 42.8687 25.4509 42.8161ZM25.1113 14.9374C25.0996 14.9374 25.0878 14.9374 25.082 14.9374C25.0703 14.9374 25.0586 14.9374 25.0469 14.9374V14.9433C25.0059 14.9433 24.9707 14.9433 24.9297 14.9491C24.8946 14.9608 24.8595 14.9666 24.8243 14.9842C24.7833 14.9958 24.754 15.0134 24.7189 15.0367C24.6896 15.0601 24.6604 15.0835 24.6311 15.1127C24.5784 15.1652 24.5315 15.2295 24.5022 15.2996C24.473 15.3697 24.4554 15.4397 24.4554 15.5157C24.4554 15.5975 24.4671 15.6734 24.4964 15.7435C24.5257 15.8136 24.5725 15.8778 24.6252 15.9304C24.7365 16.0414 24.8829 16.0998 25.041 16.0998C30.9614 16.0998 35.7809 20.901 35.7809 26.8062C35.7809 32.7114 30.9614 37.5243 25.041 37.5243V37.5301C25 37.5301 24.9649 37.5243 24.9239 37.536C24.8887 37.5476 24.8477 37.5593 24.8185 37.571C24.7775 37.5885 24.7482 37.606 24.7131 37.6236C24.6838 37.6469 24.6545 37.6703 24.6252 37.6995C24.5725 37.7521 24.5257 37.8163 24.4964 37.8864C24.4671 37.9565 24.4554 38.0324 24.4554 38.1084C24.4554 38.1901 24.4671 38.2602 24.4964 38.3362C24.5257 38.4062 24.5725 38.4705 24.6252 38.5231C24.7365 38.634 24.8829 38.6925 25.041 38.6925C31.6056 38.6925 36.9521 33.3655 36.9521 26.8179C36.9521 20.2877 31.6466 14.9783 25.1113 14.9374ZM21.3459 15.5157C21.0355 15.615 20.8657 15.9479 20.9711 16.2575C21.0472 16.5028 21.2814 16.6605 21.5274 16.6605C21.5859 16.6605 21.6445 16.6488 21.7089 16.6313C22.0134 16.5262 22.1833 16.1991 22.0837 15.8895C21.9842 15.5858 21.6562 15.4164 21.3459 15.5157ZM18.7282 18.1616C18.9917 17.9689 19.0444 17.6067 18.857 17.3439C18.6638 17.081 18.3007 17.0285 18.0372 17.2212C17.7737 17.4081 17.721 17.7761 17.9084 18.0331C18.0255 18.1908 18.2012 18.2726 18.3827 18.2726C18.4998 18.2668 18.6169 18.2375 18.7282 18.1616ZM18.3944 36.5372C18.576 36.5372 18.7516 36.4495 18.8688 36.2977C19.0561 36.0348 18.9976 35.6669 18.7399 35.4799C18.4764 35.2872 18.1075 35.3456 17.9201 35.6084C17.7268 35.8713 17.7854 36.2334 18.0489 36.4203C18.1485 36.4904 18.2714 36.5372 18.3944 36.5372ZM20.9828 37.3724C20.8832 37.6761 21.053 38.0091 21.3576 38.1084C21.422 38.1259 21.4805 38.1376 21.5391 38.1376C21.7851 38.1376 22.0134 37.9799 22.0954 37.7345C22.195 37.425 22.031 37.0979 21.7206 36.9986C21.4161 36.8993 21.0823 37.0687 20.9828 37.3724ZM16.3507 20.5272C16.5381 20.2643 16.4795 19.9022 16.2218 19.7095C15.9583 19.5226 15.5952 19.581 15.402 19.838C15.2146 20.1008 15.2732 20.4629 15.5308 20.6557C15.6362 20.7316 15.7592 20.7667 15.8763 20.7667C16.0579 20.7667 16.2394 20.6907 16.3507 20.5272ZM14.0844 23.8857C14.1488 23.9032 14.2074 23.9149 14.2659 23.9149C14.5119 23.9149 14.7461 23.7572 14.8223 23.5061C14.9218 23.2023 14.7578 22.8752 14.4475 22.7759C14.143 22.6708 13.8092 22.8402 13.7096 23.1498C13.6101 23.4535 13.7857 23.7864 14.0844 23.8857ZM13.1299 26.8237C13.1299 27.145 13.3934 27.4078 13.7155 27.4078C14.0375 27.4078 14.3011 27.145 14.3011 26.8237C14.3011 26.5025 14.0375 26.2396 13.7155 26.2396C13.3934 26.2396 13.1299 26.4966 13.1299 26.8237ZM15.8822 34.0314C16.0052 34.0314 16.1223 33.9964 16.2277 33.9204C16.4912 33.7277 16.5498 33.3655 16.3565 33.1027C16.1633 32.8457 15.8002 32.7873 15.5367 32.9742C15.279 33.1669 15.2205 33.5349 15.4079 33.7919C15.525 33.9555 15.7124 34.0314 15.8822 34.0314ZM14.2718 30.889C14.3303 30.889 14.3889 30.8773 14.4533 30.8598C14.7578 30.7605 14.9277 30.4334 14.8281 30.1238C14.7286 29.8143 14.3948 29.6507 14.0903 29.75C13.7799 29.8493 13.6159 30.1822 13.7155 30.486C13.8033 30.7313 14.0258 30.889 14.2718 30.889ZM18.2714 26.812C18.2714 30.5385 21.3107 33.57 25.0469 33.57V33.5641C25.205 33.5641 25.3514 33.5057 25.4568 33.3947C25.568 33.2838 25.6266 33.1377 25.6266 32.9859C25.6266 32.9041 25.6149 32.8282 25.5856 32.7581C25.5563 32.688 25.5153 32.6237 25.4568 32.5712C25.4041 32.5128 25.3396 32.4719 25.2694 32.4427C25.1991 32.4135 25.123 32.4018 25.0469 32.4018C21.9549 32.4018 19.4426 29.896 19.4426 26.812C19.4426 23.728 21.9549 21.2223 25.0469 21.2223C25.205 21.2223 25.3514 21.1639 25.4568 21.0529C25.568 20.9419 25.6266 20.7959 25.6266 20.6382C25.6266 20.5622 25.6149 20.4863 25.5856 20.4162C25.5563 20.3403 25.5153 20.2819 25.4568 20.2235C25.4041 20.1709 25.3396 20.13 25.2694 20.1008C25.1991 20.0716 25.123 20.0599 25.0469 20.0599V20.0541C21.3049 20.0599 18.2714 23.0914 18.2714 26.812ZM31.8164 26.812C31.8164 26.8062 31.8164 26.8062 31.8164 26.812C31.8164 26.4849 31.5529 26.2221 31.2308 26.2221C30.9087 26.2221 30.6452 26.4849 30.6511 26.812C30.6511 27.1333 30.9087 27.3961 31.2308 27.3961C31.5529 27.3961 31.8164 27.1391 31.8164 26.812ZM29.8956 29.604C29.7317 29.8843 29.8254 30.2406 30.1064 30.4042C30.2001 30.4568 30.2997 30.4801 30.3992 30.4801C30.5983 30.4801 30.7975 30.375 30.9029 30.1881C31.0668 29.9136 30.9731 29.5573 30.692 29.3937C30.4168 29.2243 30.0596 29.3178 29.8956 29.604ZM30.1064 23.2257C29.8254 23.3892 29.7317 23.7455 29.8898 24.0259C30.001 24.2128 30.1943 24.3179 30.3992 24.3179C30.4988 24.3179 30.5983 24.2887 30.692 24.2362C30.9673 24.0726 31.0668 23.7163 30.9029 23.4418C30.7447 23.1556 30.3817 23.0563 30.1064 23.2257ZM28.4316 20.9653C28.4258 20.9594 28.4258 20.9594 28.4316 20.9653C28.1505 20.8017 27.7875 20.8952 27.6294 21.1755C27.4654 21.4559 27.5591 21.8122 27.8402 21.9757C27.9339 22.0283 28.0334 22.0517 28.133 22.0517C28.3321 22.0517 28.5312 21.9465 28.6424 21.7596C28.8064 21.4793 28.7127 21.1288 28.4316 20.9653ZM27.8402 31.6483C27.5649 31.806 27.4654 32.1681 27.6294 32.4427C27.7406 32.6296 27.9339 32.7347 28.1388 32.7347C28.2384 32.7347 28.3379 32.7114 28.4316 32.6588C28.7127 32.4952 28.8064 32.1389 28.6424 31.8586C28.4785 31.5782 28.1271 31.4848 27.8402 31.6483Z" fill="#E7C868"/>
</g>
<mask id="mask0" mask-type="alpha" maskUnits="userSpaceOnUse" x="19" y="26" width="87" height="69">
<path d="M19 50.8149C19 37.5601 29.7452 26.8149 43 26.8149H82C95.2548 26.8149 106 37.5601 106 50.8149V70.8149C106 84.0698 95.2548 94.8149 82 94.8149H43C29.7452 94.8149 19 84.0698 19 70.8149V50.8149Z" fill="#F6F4EA"/>
</mask>
<g mask="url(#mask0)">
<path d="M95.7061 63.9021C98.3614 65.1091 95.002 72.0491 92.9904 75.3683H9.7094C6.57127 73.1958 6.79255 70.2387 7.29545 69.0317L9.7094 59.6777L9.10591 57.8672C16.9512 50.3237 26.3052 48.8149 43.5046 48.8149C57.2641 48.8149 68.3481 54.8498 72.1702 57.8672C84.2398 59.0742 93.0507 62.6951 95.7061 63.9021Z" fill="#88C65C"/>
<path d="M42.5699 58.6941C42.9589 59.9039 43.3325 61.1174 43.6805 62.3372C44.0336 63.5558 44.3662 64.7794 44.6938 66.0042C45.0161 67.2303 45.3385 68.4564 45.6302 69.6901C45.9116 70.9262 46.1571 72.1711 46.2644 73.45C46.2731 73.5742 46.2004 73.6762 46.1017 73.6723C46.0251 73.6701 45.9628 73.6152 45.9263 73.5329C45.4246 72.3508 45.0664 71.1335 44.7491 69.9061C44.437 68.6775 44.1556 67.4414 43.8742 66.2052C43.5928 64.9691 43.3267 63.7291 43.0761 62.4855C42.8203 61.243 42.5901 59.9943 42.3753 58.7418C42.3625 58.6678 42.3956 58.6035 42.4536 58.5963C42.503 58.5983 42.5553 58.6345 42.5699 58.6941Z" fill="#F6F4EA"/>
<path d="M48.5994 61.2024C48.9736 61.1132 49.3477 61.0398 49.7219 60.9928C50.096 60.9405 50.4701 60.9094 50.8442 60.8835C51.2183 60.8628 51.5924 60.8422 51.9665 60.8532C52.3405 60.8748 52.7145 60.9333 53.0883 61.1342C53.1245 61.1553 53.1485 61.2503 53.1403 61.3452C53.1342 61.419 53.114 61.4665 53.0879 61.4822C52.7135 61.6875 52.3394 61.745 51.9653 61.7604C51.5912 61.7704 51.2172 61.7489 50.8431 61.7273C50.4691 61.7057 50.0951 61.6684 49.7211 61.6152C49.3471 61.5672 48.9731 61.4929 48.5991 61.4028C48.577 61.3975 48.561 61.35 48.5631 61.292C48.5672 61.2445 48.5813 61.2023 48.5994 61.2024Z" fill="#F6F4EA"/>
<path d="M21.2556 61.2024C21.6298 61.1132 22.004 61.0398 22.3781 60.9928C22.7522 60.9405 23.1263 60.9094 23.5005 60.8835C23.8745 60.8628 24.2486 60.8422 24.6227 60.8532C24.9967 60.8748 25.3707 60.9333 25.7446 61.1342C25.7807 61.1553 25.8047 61.2503 25.7966 61.3452C25.7905 61.419 25.7703 61.4665 25.7441 61.4822C25.3698 61.6875 24.9957 61.745 24.6216 61.7604C24.2475 61.7704 23.8734 61.7489 23.4994 61.7273C23.1254 61.7057 22.7513 61.6684 22.3773 61.6152C22.0033 61.5672 21.6293 61.4929 21.2554 61.4028C21.2333 61.3975 21.2172 61.35 21.2193 61.292C21.2234 61.2445 21.2375 61.2023 21.2556 61.2024Z" fill="#F6F4EA"/>
<path d="M42.9011 51.229C53.7639 51.5307 64.526 56.3586 67.9458 59.3761L44.7116 57.5656L42.9011 51.229Z" fill="white"/>
<path d="M41.0907 57.2639L39.1664 51.2738C25.6848 50.7714 20.3483 54.6229 19.3652 56.6114L41.0907 57.2639Z" fill="white"/>
<circle cx="18.5" cy="75.3149" r="8.5" fill="#181818"/>
<circle cx="79.5" cy="75.3149" r="8.5" fill="#181818"/>
<circle cx="79.5" cy="75.3149" r="5.5" fill="white"/>
<circle cx="18.5" cy="75.3149" r="5.5" fill="white"/>
</g>
<path d="M60 36.8149H92C91.1967 31.1611 86.3669 26.8149 80.5288 26.8149C76.4227 26.8149 72.8154 28.9648 70.7569 32.2075C69.92 31.9522 69.0322 31.8149 68.1125 31.8149C64.5741 31.8149 61.5071 33.8469 60 36.8149Z" fill="#C6E1AB"/>
</g>
<defs>
<clipPath id="clip0">
<rect width="100" height="100" fill="white" transform="translate(0 0.814941)"/>
</clipPath>
<clipPath id="clip1">
<rect width="34" height="34" fill="white" transform="translate(8 9.81494)"/>
</clipPath>
</defs>
</svg>
