<svg width="100" height="101" viewBox="0 0 100 101" fill="none" xmlns="http://www.w3.org/2000/svg">
<rect x="19" y="26.8149" width="68" height="68" rx="24" fill="#F6F4EA"/>
<mask id="mask0" mask-type="alpha" maskUnits="userSpaceOnUse" x="19" y="26" width="68" height="69">
<path d="M19 50.8149C19 37.5601 29.7452 26.8149 43 26.8149H63C76.2548 26.8149 87 37.5601 87 50.8149V70.8149C87 84.0698 76.2548 94.8149 63 94.8149H43C29.7452 94.8149 19 84.0698 19 70.8149V50.8149Z" fill="#F6F4EA"/>
</mask>
<g mask="url(#mask0)">
<path d="M89 86.8149L11 85.4292V38.5619C11 38.5619 22.1447 19.8149 27.7161 19.8149C33.2876 19.8149 46.2857 36.6872 50 40.4366C53.7143 44.186 58.3571 41.3739 61.1428 38.5619C63.9286 35.7498 66.7143 32.9378 68.5714 32.9378C70.4286 32.9378 89 52.0923 89 52.0923V86.8149Z" fill="white"/>
<path d="M88 81.9814H19.0001V85.8148H88V81.9814Z" fill="#191919"/>
<path d="M66.917 83.8984C63.7414 83.8984 61.167 81.3241 61.167 78.1484C61.167 74.9728 63.7414 72.3984 66.917 72.3984C70.0926 72.3984 72.667 74.9728 72.667 78.1484C72.667 81.3241 70.0926 83.8984 66.917 83.8984Z" fill="#191919"/>
<path d="M36.75 84.3149C33.5744 84.3149 31 81.7406 31 78.5649C31 75.3893 33.5744 72.8149 36.75 72.8149C39.9256 72.8149 42.5 75.3893 42.5 78.5649C42.5 81.7406 39.9256 84.3149 36.75 84.3149Z" fill="#191919"/>
<path d="M22.75 84.3149C19.5744 84.3149 17 81.7406 17 78.5649C17 75.3893 19.5744 72.8149 22.75 72.8149C25.9256 72.8149 28.5 75.3893 28.5 78.5649C28.5 81.7406 25.9256 84.3149 22.75 84.3149Z" fill="#191919"/>
<path d="M66.9167 81.9816C64.7996 81.9816 63.0833 80.2654 63.0833 78.1483C63.0833 76.0312 64.7996 74.3149 66.9167 74.3149C69.0338 74.3149 70.75 76.0312 70.75 78.1483C70.75 80.2654 69.0338 81.9816 66.9167 81.9816Z" fill="#F6F4EA"/>
<path d="M36.7497 82.3981C34.6326 82.3981 32.9164 80.6819 32.9164 78.5648C32.9164 76.4477 34.6326 74.7314 36.7497 74.7314C38.8668 74.7314 40.583 76.4477 40.583 78.5648C40.583 80.6819 38.8668 82.3981 36.7497 82.3981Z" fill="#F6F4EA"/>
<path d="M22.7497 82.3981C20.6326 82.3981 18.9164 80.6819 18.9164 78.5648C18.9164 76.4477 20.6326 74.7314 22.7497 74.7314C24.8668 74.7314 26.583 76.4477 26.583 78.5648C26.583 80.6819 24.8668 82.3981 22.7497 82.3981Z" fill="#F6F4EA"/>
<path d="M45.8333 78.1484C45.8333 74.9725 48.4093 72.3984 51.5833 72.3984C54.7592 72.3984 57.3333 74.9725 57.3333 78.1484C57.3333 81.3243 54.7592 83.8984 51.5833 83.8984C48.4093 83.8984 45.8333 81.3243 45.8333 78.1484Z" fill="#191919"/>
<path d="M47.7501 78.1483C47.7501 76.0304 49.4674 74.3149 51.5834 74.3149C53.6994 74.3149 55.4167 76.0304 55.4167 78.1483C55.4167 80.2662 53.6994 81.9816 51.5834 81.9816C49.4674 81.9816 47.7501 80.2662 47.7501 78.1483Z" fill="#F6F4EA"/>
<path d="M19.0003 43.6484H68.0618C72.7107 43.6484 76.7465 46.8522 77.8011 51.38L82.2502 70.4817C82.2502 74.7156 78.8175 78.1484 74.5836 78.1484H19.0003V43.6484Z" fill="#88C65C"/>
<path d="M19 43.8149H69.9478C72.5426 43.8149 74.7825 45.4349 76 47.8149H19V43.8149Z" fill="#77B255"/>
<path d="M19.0003 70.4814H82.2502C82.2502 74.7154 78.8175 78.1481 74.5836 78.1481H19.0003V70.4814Z" fill="#5C913B"/>
<path d="M81.3177 66.6484H19.0003V70.4818H82.2502L81.3177 66.6484Z" fill="#88C65C"/>
<path d="M35.2917 74.3151H44.875C46.4601 74.3151 47.75 73.0252 47.75 71.4401V52.2734C47.75 50.6884 46.4601 49.3984 44.875 49.3984H35.2917C33.7066 49.3984 32.4167 50.6884 32.4167 52.2734V71.4401C32.4167 73.0252 33.7066 74.3151 35.2917 74.3151ZM44.875 51.3151C45.4021 51.3151 45.8333 51.7444 45.8333 52.2734V71.4401C45.8333 71.9672 45.4021 72.3984 44.875 72.3984H35.2917C34.7646 72.3984 34.3334 71.9672 34.3334 71.4401V52.2734C34.3334 51.7444 34.7646 51.3151 35.2917 51.3151H44.875Z" fill="#5C913B"/>
</g>
<path d="M35 37.8149C35 36.7104 35.8954 35.8149 37 35.8149H44C45.1046 35.8149 46 36.7104 46 37.8149V43.8149H35V37.8149Z" fill="#77B255"/>
<path d="M78.5 53.8149H70.917V63.3983H80.5L78.5 53.8149ZM59.417 59.5649C59.417 60.6248 60.2738 61.4816 61.3337 61.4816H65.167C66.225 61.4816 67.0837 60.6248 67.0837 59.5649V55.7316C67.0837 54.6717 66.225 53.8149 65.167 53.8149H61.3337C60.2738 53.8149 59.417 54.6717 59.417 55.7316V59.5649ZM49.8337 59.5649C49.8337 60.6248 50.6905 61.4816 51.7504 61.4816H55.5837C56.6417 61.4816 57.5004 60.6248 57.5004 59.5649V55.7316C57.5004 54.6717 56.6417 53.8149 55.5837 53.8149H51.7504C50.6905 53.8149 49.8337 54.6717 49.8337 55.7316V59.5649ZM36.4171 59.5649C36.4171 60.6248 37.2738 61.4816 38.3337 61.4816H42.167C43.227 61.4816 44.0837 60.6248 44.0837 59.5649V55.7316C44.0837 54.6717 43.227 53.8149 42.167 53.8149H38.3337C37.2738 53.8149 36.4171 54.6717 36.4171 55.7316V59.5649ZM23.0004 59.5649C23.0004 60.6248 23.8572 61.4816 24.9171 61.4816H28.7504C29.8103 61.4816 30.6671 60.6248 30.6671 59.5649V55.7316C30.6671 54.6717 29.8103 53.8149 28.7504 53.8149H24.9171C23.8572 53.8149 23.0004 54.6717 23.0004 55.7316V59.5649Z" fill="white"/>
<path d="M44.999 32.901V15.8574" stroke="#E7C868" stroke-linecap="round"/>
<path d="M42 32.8869V15.8433" stroke="#E7C868" stroke-linecap="round"/>
<path d="M39 32.8727V15.8291" stroke="#E7C868" stroke-linecap="round"/>
<path d="M36 32.8586V15.8149" stroke="#E7C868" stroke-linecap="round"/>
</svg>
